<?xml version="1.0" encoding="utf-8"?>
<!-- Generator: Adobe Illustrator 21.0.0, SVG Export Plug-In . SVG Version: 6.00 Build 0)  -->
<svg version="1.1" id="图层_1" xmlns="http://www.w3.org/2000/svg" xmlns:xlink="http://www.w3.org/1999/xlink" x="0px" y="0px"
	 viewBox="0 0 293 50" style="enable-background:new 0 0 293 50;" xml:space="preserve">
<style type="text/css">
	.st0{fill:#2B2B2B;}
	.st1{font-family:'FZYXFW--GB1-0';}
	.st2{font-size:34.9758px;}
	.st3{fill:none;stroke:#2B2B2B;stroke-miterlimit:10;}
	.st4{fill:#3CBC64;}
	.st5{font-family:'FZXSHJW--GB1-0';}
	.st6{font-size:19.9375px;}
	.st7{fill:none;stroke:#444444;stroke-width:0.75;stroke-miterlimit:10;}
</style>
<text transform="matrix(1 0 0 1 55.8677 37.2295)" class="st0 st1 st2">Mofee</text>
<text transform="matrix(1 0 0 1 55.8677 37.2295)" class="st3 st1 st2">Mofee</text>
<path class="st4" d="M172.1,9.8c-0.7,0-1.2-0.5-1.2-1.2l-2.7,0.2l-2.7-0.2c0,0.7-0.5,1.2-1.2,1.2c-0.5,5.6,3.9,7.6,3.9,7.6
	S172.6,15.5,172.1,9.8z M169,12.3h1v0.9h-1.3v0.4h1.3v0.9h-1.3v1.1h-1v-1.1h-1.3v-0.9h1.3v-0.4h-1.3v-0.9h1L166,9.9h1.2
	c0,0,0.9,1.6,1.1,2c0.1-0.1,1.1-2,1.1-2h1.1L169,12.3z"/>
<text transform="matrix(1 0 0 1 195.5 32.7318)" class="st5 st6">聚合支付</text>
<path class="st0" d="M16.6,34.6C14.9,32,14,28.9,14,25.5C14,16,21.7,8.3,31.2,8.3c2.9,0,5.8,0.7,8.3,2.1c0.6,0.3,1.3,0.1,1.6-0.5
	s0.1-1.3-0.5-1.6C37.7,6.8,34.5,6,31.2,6c-2.6,0-5.2,0.5-7.6,1.5c-2.3,1-4.4,2.4-6.2,4.2s-3.2,3.9-4.2,6.2c-1,2.4-1.5,5-1.5,7.6
	c0,3.8,1,7.4,3,10.4c0.2,0.3,0.6,0.5,1,0.5c0.2,0,0.4-0.1,0.6-0.2C16.8,35.9,17,35.2,16.6,34.6z"/>
<path class="st0" d="M50.6,23.7c-0.1-0.6-0.6-1.1-1.3-1c-0.6,0.1-1.1,0.6-1,1.3c0,0.5,0.1,1,0.1,1.6c0,9.5-7.7,17.2-17.2,17.2
	c-2.1,0-4.8-0.6-7.1-1.5c-0.6-0.2-1.3,0-1.5,0.6s0,1.3,0.6,1.5c2.5,1,5.5,1.7,8,1.7c2.6,0,5.2-0.5,7.6-1.5c2.3-1,4.4-2.4,6.2-4.2
	s3.2-3.9,4.2-6.2c1-2.4,1.5-5,1.5-7.6C50.7,24.9,50.7,24.3,50.6,23.7z"/>
<path class="st0" d="M41.8,12.5c2.6,2,4.9,5.6,5.7,8.4c0.2,0.5,0.6,0.8,1.1,0.8c0.1,0,0.2,0,0.3-0.1c0.6-0.2,0.9-0.8,0.8-1.4
	c-1.2-3.8-3.4-7.1-6.5-9.5c-0.5-0.4-1.2-0.3-1.6,0.2C41.2,11.4,41.3,12.1,41.8,12.5z"/>
<path class="st0" d="M21.4,39.6c-1.1-0.7-2.1-1.6-3-2.6c-0.4-0.5-1.2-0.5-1.6-0.1c-0.5,0.4-0.5,1.2-0.1,1.6c1,1.1,2.2,2.1,3.4,2.9
	c0.2,0.1,0.4,0.2,0.6,0.2c0.4,0,0.7-0.2,1-0.5C22.1,40.6,21.9,39.9,21.4,39.6z"/>
<path class="st0" d="M40.6,33V21.4c0-0.7-0.6-1.3-1.3-1.4v-3.2c0-0.8-0.6-1.4-1.4-1.4h-0.1l-15.1,4.4c-0.2,0-0.4,0.1-0.6,0.2
	c-0.7,0.1-1.2,0.7-1.2,1.4V33c0,0.8,0.6,1.4,1.4,1.4h16.8C40,34.4,40.6,33.8,40.6,33z M38,16.8l0.1,0.1V20H26.7L38,16.8z M22.4,33.1
	c-0.1,0-0.1-0.1-0.1-0.1V21.4c0-0.1,0.1-0.1,0.1-0.1h16.8c0.1,0,0.1,0.1,0.1,0.1V33c0,0.1-0.1,0.1-0.1,0.1H22.4L22.4,33.1z"/>
<path class="st0" d="M31.9,25.2l-1.1,1l-1.1-1.1c-0.1-0.1-0.3-0.1-0.4,0s-0.1,0.3,0,0.4l1.1,1.1l0,0v0.1h-0.8
	c-0.1,0-0.3,0.1-0.3,0.3s0.1,0.3,0.3,0.3h0.8v0.5h-0.8c-0.1,0-0.3,0.1-0.3,0.3s0.1,0.3,0.3,0.3h0.8v0.9c0,0.1,0.1,0.3,0.3,0.3
	c0.1,0,0.3-0.1,0.3-0.3v-0.9h0.8c0.1,0,0.3-0.1,0.3-0.3s-0.1-0.3-0.3-0.3H31v-0.5h0.8c0.1,0,0.3-0.1,0.3-0.3s-0.1-0.3-0.3-0.3H31
	v-0.1l0,0l1.1-1.1c0.1-0.1,0.1-0.3,0-0.4C32.1,25.1,32,25.1,31.9,25.2z"/>
<line class="st7" x1="182" y1="37.9" x2="182" y2="13"/>
</svg>
