<?xml version="1.0" encoding="utf-8"?>
<!-- Generator: Adobe Illustrator 21.0.0, SVG Export Plug-In . SVG Version: 6.00 Build 0)  -->
<svg version="1.1" id="图层_1" xmlns="http://www.w3.org/2000/svg" xmlns:xlink="http://www.w3.org/1999/xlink" x="0px" y="0px"
	 viewBox="0 0 293 50" style="enable-background:new 0 0 293 50;" xml:space="preserve">
<style type="text/css">
	.st0{fill:#2B2B2B;}
	.st1{font-family:'FZYXFW--GB1-0';}
	.st2{font-size:34.9758px;}
	.st3{fill:#FFFFFF;}
	.st4{fill:none;stroke:#FFFFFF;stroke-miterlimit:10;}
	.st5{fill:#41CF58;}
	.st6{font-family:'FZXSHJW--GB1-0';}
	.st7{font-size:19.9375px;}
	.st8{fill:none;stroke:#FFFFFF;stroke-width:0.75;stroke-miterlimit:10;}
</style>
<text transform="matrix(1 0 0 1 64.4927 36.7295)" class="st0 st1 st2">Mofee</text>
<text transform="matrix(1 0 0 1 64.4927 36.7295)" class="st3 st1 st2">Mofee</text>
<text transform="matrix(1 0 0 1 64.4927 36.7295)" class="st4 st1 st2">Mofee</text>
<path class="st3" d="M180,10.8c-0.7,0-1.2-0.5-1.2-1.2l-2.7,0.2l-2.7-0.2c0,0.7-0.5,1.2-1.2,1.2c-0.5,5.6,3.9,7.6,3.9,7.6
	S180.5,16.5,180,10.8z"/>
<path class="st5" d="M176.9,13.3h1v0.9h-1.3v0.4h1.3v0.9h-1.3v1.1h-1v-1.1h-1.3v-0.9h1.3v-0.4h-1.3v-0.9h1l-1.4-2.4h1.2
	c0,0,0.9,1.6,1.1,2c0.1-0.1,1.1-2,1.1-2h1.1L176.9,13.3z"/>
<text transform="matrix(1 0 0 1 198.2917 32.2318)" class="st3 st6 st7">聚合支付</text>
<path class="st3" d="M25.2,34c-1.7-2.6-2.6-5.7-2.6-9.1c0-9.5,7.7-17.2,17.2-17.2c2.9,0,5.8,0.7,8.3,2.1c0.6,0.3,1.3,0.1,1.6-0.5
	s0.1-1.3-0.5-1.6c-2.9-1.5-6.1-2.3-9.4-2.3c-2.6,0-5.2,0.5-7.6,1.5c-2.3,1-4.4,2.4-6.2,4.2s-3.2,3.9-4.2,6.2c-1,2.4-1.5,5-1.5,7.6
	c0,3.8,1,7.4,3,10.4c0.2,0.3,0.6,0.5,1,0.5c0.2,0,0.4-0.1,0.6-0.2C25.4,35.3,25.6,34.8,25.2,34z"/>
<path class="st3" d="M59.2,23.2c-0.1-0.6-0.6-1.1-1.3-1c-0.6,0.1-1.1,0.6-1,1.3c0,0.5,0.1,1,0.1,1.6c0,9.5-7.7,17.2-17.2,17.2
	c-2.1,0-4.8-0.6-7.1-1.5c-0.6-0.2-1.3,0-1.5,0.6s0,1.3,0.6,1.5c2.5,1,5.5,1.7,8,1.7c2.6,0,5.2-0.5,7.6-1.5c2.3-1,4.4-2.4,6.2-4.2
	s3.2-3.9,4.2-6.2c1-2.4,1.5-5,1.5-7.6C59.3,24.3,59.3,23.8,59.2,23.2z"/>
<path class="st3" d="M50.4,11.9c2.6,2,4.9,5.6,5.7,8.4c0.2,0.5,0.6,0.8,1.1,0.8c0.1,0,0.2,0,0.3-0.1c0.6-0.2,0.9-0.8,0.8-1.4
	c-1.2-3.8-3.4-7.1-6.5-9.5c-0.5-0.4-1.2-0.3-1.6,0.2C49.8,10.9,49.9,11.6,50.4,11.9z"/>
<path class="st3" d="M30,39c-1.1-0.7-2.1-1.6-3-2.6c-0.4-0.5-1.2-0.5-1.6-0.1c-0.5,0.4-0.5,1.2-0.1,1.6c1,1.1,2.2,2.1,3.4,2.9
	c0.2,0.1,0.4,0.2,0.6,0.2c0.4,0,0.7-0.2,1-0.5C30.7,40,30.5,39.3,30,39z"/>
<path class="st3" d="M49.2,32.5V20.8c0-0.7-0.6-1.3-1.3-1.4v-3.2c0-0.8-0.6-1.4-1.4-1.4h-0.1l-15.1,4.4c-0.2,0-0.4,0.1-0.6,0.2
	c-0.7,0.1-1.2,0.7-1.2,1.4v11.6c0,0.8,0.6,1.4,1.4,1.4h16.8C48.6,33.8,49.2,33.3,49.2,32.5z M46.6,16.3l0.1,0.1v3.1H35.3L46.6,16.3z
	 M31,32.5C30.9,32.5,30.9,32.5,31,32.5l-0.1-11.7c0-0.1,0.1-0.1,0.1-0.1h16.8c0.1,0,0.1,0.1,0.1,0.1v11.6c0,0.1-0.1,0.1-0.1,0.1H31
	L31,32.5z"/>
<path class="st3" d="M40.5,24.7l-1.1,1l-1.1-1.1c-0.1-0.1-0.3-0.1-0.4,0c-0.1,0.1-0.1,0.3,0,0.4l1.1,1l0,0v0.1h-0.8
	c-0.1,0-0.3,0.1-0.3,0.3c0,0.2,0.1,0.3,0.3,0.3H39v0.5h-0.8c-0.1,0-0.3,0.1-0.3,0.3c0,0.2,0.1,0.3,0.3,0.3H39v0.9
	c0,0.1,0.1,0.3,0.3,0.3c0.1,0,0.3-0.1,0.3-0.3v-0.9h0.8c0.1,0,0.3-0.1,0.3-0.3c0-0.2-0.1-0.3-0.3-0.3h-0.8v-0.5h0.8
	c0.1,0,0.3-0.1,0.3-0.3c0-0.2-0.1-0.3-0.3-0.3h-0.8V26l0,0l1.1-1.1c0.1-0.1,0.1-0.3,0-0.4C40.7,24.5,40.6,24.5,40.5,24.7z"/>
<line class="st8" x1="184.8" y1="37.3" x2="184.8" y2="12.4"/>
</svg>
